<svg width="24" height="24" viewBox="0 0 24 24" fill="none" xmlns="http://www.w3.org/2000/svg">
<path d="M12 10.5268H21.7098C21.8169 11.125 21.8705 11.6964 21.8705 12.241C21.8705 14.1785 21.4642 15.9085 20.6517 17.4308C19.8392 18.9531 18.6808 20.1428 17.1763 21C15.6718 21.8571 13.9464 22.2857 12 22.2857C10.5982 22.2857 9.26336 22.0156 7.9955 21.4754C6.72764 20.9352 5.63389 20.2053 4.71425 19.2857C3.79461 18.366 3.0647 17.2723 2.52452 16.0044C1.98434 14.7366 1.71425 13.4018 1.71425 12C1.71425 10.5982 1.98434 9.26337 2.52452 7.99551C3.0647 6.72766 3.79461 5.63391 4.71425 4.71426C5.63389 3.79462 6.72764 3.06471 7.9955 2.52453C9.26336 1.98435 10.5982 1.71426 12 1.71426C14.6785 1.71426 16.9776 2.61159 18.8973 4.40623L16.0982 7.09819C15 6.03569 13.6339 5.50444 12 5.50444C10.8482 5.50444 9.78345 5.79462 8.80577 6.37498C7.82809 6.95534 7.05353 7.74328 6.48211 8.73882C5.91068 9.73435 5.62496 10.8214 5.62496 12C5.62496 13.1785 5.91068 14.2656 6.48211 15.2611C7.05353 16.2567 7.82809 17.0446 8.80577 17.625C9.78345 18.2053 10.8482 18.4955 12 18.4955C12.7767 18.4955 13.491 18.3884 14.1428 18.1741C14.7946 17.9598 15.3303 17.6919 15.75 17.3705C16.1696 17.0491 16.5357 16.683 16.8482 16.2723C17.1607 15.8616 17.3906 15.4732 17.5379 15.1071C17.6852 14.741 17.7857 14.3928 17.8392 14.0625H12V10.5268Z" fill="white"/>
</svg>
