<svg width="88" height="45" viewBox="0 0 88 45" fill="none" xmlns="http://www.w3.org/2000/svg">
<g clip-path="url(#clip0)">
<path d="M13.6908 43.234C13.0223 42.9453 12.3708 42.6311 11.7362 42.283C12.3708 42.6227 13.0223 42.9453 13.6908 43.234Z" fill="#00544F"/>
<path d="M17.9046 0.458496C17.1769 0.611326 16.4662 0.789623 15.7639 1.01038C16.4667 0.786631 17.1814 0.602388 17.9046 0.458496Z" fill="#00544F"/>
<path d="M24.1577 32.1283H24.1492C24.09 32.0009 24.0308 31.8821 23.98 31.7547C23.8615 31.5085 23.76 31.2623 23.6585 31.0076C23.7346 31.1944 23.8193 31.3812 23.9039 31.5679L24.1577 32.1283Z" fill="#00544F"/>
<path d="M27.3985 37.1378C27.3562 37.0868 27.3139 37.0443 27.2716 36.9934C27.1108 36.8066 26.9585 36.6113 26.8062 36.4075C26.7131 36.3057 26.637 36.1953 26.5523 36.0934C26.307 35.7623 26.0615 35.4226 25.8331 35.0745C26.3239 35.7962 26.8485 36.4755 27.3985 37.1378Z" fill="#00544F"/>
<path d="M29.0823 1.01038C28.38 0.789623 27.6692 0.611326 26.9415 0.458496C27.6646 0.603429 28.3792 0.787658 29.0823 1.01038V1.01038Z" fill="#00544F"/>
<path d="M30.9777 40.5085C30.4056 40.0808 29.8576 39.6216 29.3362 39.133C29.8608 39.617 30.4108 40.067 30.9777 40.5085Z" fill="#00544F"/>
<path d="M33.4231 42.0962V42.1047H33.4146C33.1523 41.9604 32.8985 41.8076 32.6446 41.6462C32.9069 41.7991 33.1608 41.9519 33.4231 42.0962Z" fill="#00544F"/>
<path d="M33.4315 2.89528L33.4231 2.90378L33.4146 2.89528H33.4315Z" fill="#00544F"/>
<path d="M37.51 39.133C36.9839 39.6196 36.4332 40.0788 35.86 40.5085C36.427 40.0755 36.9854 39.617 37.51 39.133Z" fill="#00544F"/>
<path d="M41.0131 35.0745C40.2161 36.2659 39.3035 37.3751 38.2885 38.3859C39.2987 37.3707 40.2109 36.262 41.0131 35.0745V35.0745Z" fill="#00544F"/>
<path d="M32.6446 41.6462C32.8985 41.8076 33.1523 41.9604 33.4146 42.1047H33.4231V42.0962C33.1608 41.9519 32.9069 41.7991 32.6446 41.6462Z" fill="#00544F"/>
<path d="M86.6377 14.7651C86.2587 13.7389 85.8092 12.7402 85.2923 11.7764C84.7704 10.8239 84.1852 9.90774 83.5408 9.03399C83.2954 8.71135 83.05 8.3972 82.7877 8.08305C82.2631 7.46324 81.7131 6.8689 81.1377 6.30852C79.9743 5.18246 78.6951 4.18346 77.3216 3.32833C76.9747 3.12455 76.6193 2.91229 76.2639 2.717H76.2554C75.6208 2.36889 74.9693 2.05474 74.3008 1.76607C73.6323 1.47739 72.9385 1.23115 72.2362 1.01039C71.5339 0.789638 70.8231 0.611341 70.0954 0.458511C69.3599 0.306774 68.6172 0.19342 67.87 0.118894C66.3454 -0.0395905 64.8085 -0.0395905 63.2839 0.118894C62.5367 0.19342 61.7939 0.306774 61.0585 0.458511C60.3308 0.611341 59.62 0.789638 58.9177 1.01039C58.2154 1.23115 57.5216 1.48588 56.8446 1.76607C56.5316 1.90191 56.2185 2.04625 55.9138 2.19059C55.7615 2.26701 55.6008 2.34341 55.4485 2.41983C55.2962 2.49624 55.1523 2.58116 55.0085 2.66606H55C54.1203 3.13765 53.2748 3.67106 52.47 4.26229C52.0977 4.53399 51.7254 4.82267 51.3615 5.11135H51.3531C51.2685 5.18777 51.1838 5.25569 51.0992 5.32361C51.0062 5.40852 50.9131 5.49341 50.82 5.56982C50.8116 5.57831 50.7946 5.5868 50.7862 5.59529C50.6169 5.73963 50.4646 5.88399 50.3038 6.03682C50.0838 6.24908 49.8554 6.46983 49.6354 6.69058C49.1108 7.22549 48.6115 7.77738 48.1377 8.36323C47.96 8.58398 47.7823 8.80474 47.6131 9.03399C46.9687 9.90774 46.3835 10.8239 45.8615 11.7764C45.3447 12.7402 44.8952 13.7389 44.5162 14.7651C44.3216 15.3 44.1439 15.8349 44 16.3868C43.8562 15.8349 43.6785 15.3 43.4838 14.7651C43.1049 13.7389 42.6553 12.7402 42.1385 11.7764C41.6165 10.8239 41.0313 9.90774 40.3869 9.03399C40.0654 8.60946 39.7269 8.19342 39.38 7.78587C39.38 7.78362 39.3791 7.78145 39.3775 7.77986C39.376 7.77827 39.3738 7.77738 39.3716 7.77738C39.0246 7.37832 38.6608 6.98775 38.2885 6.60567C38.0939 6.41888 37.8993 6.22359 37.7047 6.04529C37.3154 5.6802 36.9092 5.33208 36.5031 4.98397C36.2915 4.82265 36.08 4.66134 35.8685 4.49153C38.4519 3.25288 41.272 2.59027 44.1348 2.54923C46.9977 2.50819 49.8355 3.0897 52.4531 4.25379C53.2628 3.66549 54.1109 3.13222 54.9916 2.65756C54.3908 2.33492 53.7731 2.03776 53.147 1.76607C52.47 1.48588 51.7847 1.23115 51.0823 1.01039C50.38 0.789638 49.6692 0.611341 48.9416 0.458511C48.2061 0.306774 47.4633 0.19342 46.7162 0.118894C45.1915 -0.0395905 43.6547 -0.0395905 42.13 0.118894C41.3829 0.19342 40.6401 0.306774 39.9046 0.458511C39.1769 0.611341 38.4662 0.789638 37.7639 1.01039C37.0616 1.23115 36.3677 1.48588 35.6908 1.76607C35.3016 1.93588 34.9208 2.11417 34.5485 2.29248C34.5485 2.29473 34.5476 2.2969 34.546 2.29849C34.5444 2.30008 34.5422 2.30098 34.54 2.30098C34.1677 2.48777 33.7954 2.68304 33.4315 2.8953L33.4231 2.9038L33.4146 2.8953C33.3131 2.83587 33.2031 2.77644 33.1016 2.717C32.467 2.36889 31.8154 2.05474 31.147 1.76607C30.4785 1.47739 29.7847 1.23115 29.0823 1.01039C28.38 0.789638 27.6692 0.611341 26.9416 0.458511C26.2061 0.306774 25.4633 0.19342 24.7162 0.118894C23.1915 -0.0395905 21.6547 -0.0395905 20.13 0.118894C19.3829 0.19342 18.6401 0.306774 17.9046 0.458511C17.1769 0.611341 16.4662 0.789638 15.7639 1.01039C15.0616 1.23115 14.3677 1.48588 13.6908 1.76607C13.4031 1.88493 13.1154 2.02078 12.8362 2.15662C12.2777 2.41983 11.7277 2.71699 11.1862 3.02265C10.9154 3.18397 10.6531 3.3453 10.3908 3.50662C10.1285 3.66794 9.87465 3.84626 9.62081 4.02456C9.36696 4.20286 9.12157 4.38965 8.87619 4.57644C8.6308 4.76323 8.38543 4.95002 8.14851 5.15379C7.43409 5.74316 6.75855 6.37845 6.12619 7.05567C5.91465 7.27643 5.71153 7.50569 5.50846 7.73493C5.30538 7.96418 5.11081 8.2104 4.91619 8.44814C4.75542 8.64342 4.61154 8.83871 4.45924 9.03399C3.81484 9.90774 3.22967 10.8239 2.70769 11.7764C2.19085 12.7402 1.74134 13.7389 1.36234 14.7651C-0.454071 19.7607 -0.454071 25.2394 1.36234 30.2349C1.45541 30.4981 1.55693 30.7529 1.65847 31.0076C1.81924 31.3812 1.98003 31.7547 2.15772 32.1283C2.33541 32.5019 2.51308 32.8585 2.70769 33.2151C2.88538 33.5377 3.06309 33.8519 3.24924 34.1661C3.63001 34.7859 4.0277 35.3802 4.45924 35.9576C4.62 36.1698 4.78079 36.3906 4.95002 36.5944C5.28848 37.0189 5.64387 37.4264 6.00771 37.817C6.19387 38.0208 6.38 38.2076 6.56615 38.4029C6.82 38.6576 7.08234 38.9038 7.34465 39.15C7.87773 39.634 8.42769 40.0925 9.00308 40.5255C9.29923 40.7378 9.59543 40.95 9.89158 41.1538C10.4839 41.5528 11.1016 41.9349 11.7362 42.283C12.3708 42.6312 13.0223 42.9453 13.6908 43.234C16.4541 44.3996 19.4214 45 22.4189 45C25.4164 45 28.3837 44.3996 31.147 43.234C31.8154 42.9453 32.467 42.6312 33.1016 42.283C33.2031 42.2236 33.3131 42.1642 33.4146 42.1047C33.1523 41.9604 32.8985 41.8076 32.6446 41.6463C32.9069 41.7991 33.1608 41.9519 33.4231 42.0963H33.4315C34.1619 42.5193 34.9163 42.8992 35.6908 43.234C38.4541 44.3996 41.4214 45 44.4189 45C47.4164 45 50.3837 44.3996 53.147 43.234C53.7731 42.9623 54.3908 42.6651 54.9916 42.3425C54.6616 42.1642 54.3315 41.9774 54.01 41.7736C54.3315 41.9689 54.6616 42.1557 55 42.334H55.0085C55.0592 42.3595 55.11 42.3934 55.1692 42.4189C55.223 42.4522 55.2796 42.4806 55.3385 42.5038C55.5839 42.6396 55.8292 42.7585 56.0831 42.8859C56.3369 43.0132 56.5908 43.1236 56.8446 43.234C59.6079 44.3996 62.5752 45 65.5727 45C68.5702 45 71.5376 44.3996 74.3008 43.234C74.9693 42.9453 75.6208 42.6312 76.2554 42.283C77.2046 41.7593 78.1177 41.1721 78.9885 40.5255C79.5639 40.0925 80.1139 39.634 80.647 39.15C80.9093 38.9038 81.1716 38.6576 81.4254 38.4029C81.9331 37.8934 82.4154 37.3585 82.8723 36.8066C83.559 35.9714 84.1866 35.089 84.7508 34.1661C84.9369 33.8519 85.1146 33.5377 85.2923 33.2151C85.6811 32.4986 86.0313 31.7617 86.3416 31.0076C86.4431 30.7529 86.5446 30.4981 86.6377 30.2349C88.4542 25.2394 88.4542 19.7607 86.6377 14.7651V14.7651ZM52.4616 40.7463C49.841 41.9104 47.0004 42.4918 44.1348 42.4508C41.2692 42.4098 38.4465 41.7472 35.86 40.5085C36.427 40.0755 36.9854 39.617 37.51 39.133H37.5185C37.7808 38.8868 38.0347 38.6406 38.2885 38.3859C39.2987 37.3707 40.2109 36.262 41.0131 35.0745C41.2162 34.7774 41.4108 34.4717 41.5969 34.1661C41.7831 33.8604 41.9608 33.5377 42.1385 33.2151C42.3331 32.8585 42.5192 32.4934 42.6885 32.1283C42.8577 31.7632 43.0269 31.3812 43.1877 31.0076C43.2893 30.7529 43.3908 30.4981 43.4838 30.2349C43.67 29.7085 43.8477 29.1651 44 28.6132C44.1523 29.1651 44.33 29.7085 44.5162 30.2349C44.6093 30.4981 44.7108 30.7529 44.8123 31.0076C45.1226 31.7617 45.4728 32.4986 45.8615 33.2151C46.0392 33.5377 46.2169 33.8519 46.4031 34.1661C46.7839 34.7859 47.1815 35.3802 47.6131 35.9576C48.0446 36.5349 48.5015 37.0868 48.9838 37.6217C49.4629 38.1562 49.9685 38.6663 50.4985 39.15C51.0316 39.634 51.5815 40.0925 52.1569 40.5255H52.1654C52.2669 40.6019 52.3685 40.6698 52.47 40.7378C52.6562 40.8821 52.8508 41.0179 53.037 41.1538C52.8423 41.0264 52.6477 40.8906 52.4616 40.7463V40.7463ZM65.577 42.4528C62.8042 42.4563 60.062 41.8718 57.53 40.7378C57.6316 40.6698 57.7331 40.6019 57.8346 40.5255C58.41 40.0925 58.9685 39.634 59.4931 39.15C59.7554 38.9038 60.0177 38.6576 60.2716 38.4029C60.7825 37.8977 61.2656 37.3648 61.7185 36.8066C61.9639 36.5179 62.2008 36.2123 62.4292 35.9066C62.6239 35.6349 62.8269 35.3632 63.0131 35.0745C63.2162 34.7774 63.4108 34.4717 63.5969 34.1661C63.7831 33.8604 63.9608 33.5377 64.1385 33.2151C64.2316 33.0368 64.3331 32.8585 64.4262 32.6717V32.6632L64.4346 32.6547V32.6463C64.454 32.6049 64.4766 32.5651 64.5023 32.5274C64.5277 32.4679 64.5615 32.4085 64.5869 32.3491C64.6208 32.2727 64.6546 32.2047 64.6885 32.1283L64.9423 31.568C65.027 31.3812 65.1116 31.1944 65.1877 31.0076C65.2892 30.7529 65.3908 30.4981 65.4838 30.2349C65.8455 29.235 66.1368 28.2107 66.3554 27.1698H63.7492C62.5338 32.23 59.3936 36.6122 55 39.3793C50.6065 36.6122 47.4662 32.23 46.2508 27.1698H41.7492C40.5757 32.0613 37.6012 36.326 33.4231 39.1076C29.2451 36.326 26.2705 32.0613 25.0969 27.1698H22.4908C22.7094 28.2107 23.0007 29.235 23.3623 30.2349C23.4554 30.4981 23.5569 30.7529 23.6585 31.0076C23.7346 31.1944 23.8193 31.3812 23.9039 31.568L24.1577 32.1283C24.1683 32.1399 24.1743 32.155 24.1746 32.1708L24.2 32.2217C24.2 32.2302 24.2085 32.2302 24.2085 32.2387C24.2254 32.2811 24.2423 32.3151 24.2593 32.3491C24.31 32.451 24.3608 32.5444 24.4031 32.6378C24.4962 32.833 24.5977 33.0283 24.7077 33.2151C24.8854 33.5377 25.0631 33.8519 25.2492 34.1661C25.4354 34.4802 25.63 34.7774 25.8331 35.0745C26.3239 35.7962 26.8485 36.4755 27.3985 37.1378C27.407 37.1463 27.4154 37.1632 27.4323 37.1717L27.4662 37.2057C27.5 37.2481 27.5338 37.2821 27.5677 37.3246C27.5792 37.3435 27.5935 37.3607 27.61 37.3755C27.627 37.384 27.6269 37.3925 27.6354 37.401C27.6439 37.4095 27.6354 37.4095 27.6439 37.4179L27.6608 37.4349C27.8639 37.6642 28.0669 37.8849 28.2785 38.1057C28.3107 38.1493 28.3476 38.1891 28.3885 38.2246L28.397 38.233C28.5493 38.3859 28.7016 38.5387 28.8539 38.683C29.0062 38.8274 29.1669 38.9887 29.3277 39.133C29.3277 39.1415 29.3277 39.1415 29.3362 39.133C29.8608 39.617 30.4108 40.067 30.9777 40.5085C28.308 41.7934 25.384 42.458 22.4231 42.4528C17.1494 42.4528 12.0917 40.3507 8.36258 36.6088C4.63349 32.8669 2.5385 27.7918 2.5385 22.5C2.5385 17.2082 4.63349 12.1331 8.36258 8.39124C12.0917 4.64935 17.1494 2.54718 22.4231 2.54718C25.384 2.54207 28.308 3.20665 30.9777 4.49153C30.7662 4.65285 30.5546 4.81416 30.3431 4.98397C29.937 5.33208 29.5308 5.6802 29.1416 6.04529C28.947 6.2151 28.7523 6.40192 28.5662 6.5972C28.38 6.79248 28.1939 6.97927 28.0077 7.17455C27.9993 7.17455 27.9992 7.17456 27.9992 7.18305C27.6354 7.57362 27.2885 7.98116 26.95 8.3972C26.7808 8.60946 26.62 8.82172 26.4592 9.03399C25.8148 9.90774 25.2297 10.8239 24.7077 11.7764C24.1893 12.7394 23.7397 13.7382 23.3623 14.7651C22.994 15.7629 22.7026 16.7876 22.4908 17.8302H25.0969C26.2683 12.9377 29.2433 8.67222 33.4231 5.89247C37.6029 8.67222 40.5779 12.9377 41.7492 17.8302H46.2508C47.4639 12.769 50.6047 8.38599 55 5.62076C59.3953 8.38599 62.5361 12.769 63.7492 17.8302H66.3554C66.1436 16.7876 65.8522 15.7629 65.4838 14.7651C65.1065 13.7382 64.6569 12.7394 64.1385 11.7764C63.6165 10.8239 63.0313 9.90774 62.3869 9.03399C61.8768 8.34476 61.3258 7.68696 60.7369 7.06417C60.4915 6.80945 60.2377 6.55475 59.9838 6.30852C59.73 6.0623 59.4592 5.80757 59.1969 5.58682C58.6639 5.11984 58.1054 4.67833 57.53 4.26229L57.5385 4.25379C60.2459 3.05165 63.1866 2.47131 66.146 2.55514C69.1055 2.63896 72.0089 3.38483 74.6443 4.73831C77.2798 6.09178 79.5809 8.01871 81.3795 10.3784C83.1781 12.7381 84.4289 15.4711 85.0406 18.3777C85.6522 21.2844 85.6093 24.2914 84.915 27.1793C84.2207 30.0672 82.8924 32.7632 81.0273 35.0702C79.1621 37.3773 76.8071 39.2374 74.134 40.5146C71.461 41.7919 68.5376 42.454 65.577 42.4528V42.4528Z" fill="#00544F"/>
</g>
<defs>
<clipPath id="clip0">
<rect width="88" height="45" fill="white"/>
</clipPath>
</defs>
</svg>
